<?xml version="1.0" standalone="no"?>
<!DOCTYPE svg PUBLIC "-//W3C//DTD SVG 20010904//EN"
 "http://www.w3.org/TR/2001/REC-SVG-20010904/DTD/svg10.dtd">
<svg version="1.0" xmlns="http://www.w3.org/2000/svg"
 width="249.000000pt" height="137.000000pt" viewBox="0 0 249.000000 137.000000"
 preserveAspectRatio="xMidYMid meet">

<g transform="translate(0.000000,137.000000) scale(0.100000,-0.100000)"
fill="#000000" stroke="none">
<path d="M1328 1209 c-3 -8 0 -30 6 -49 l10 -35 4 32 c4 36 -11 75 -20 52z"/>
<path d="M1367 1164 c-12 -22 -17 -73 -8 -79 6 -3 11 -5 11 -3 0 2 4 17 9 34
8 30 -1 66 -12 48z"/>
<path d="M1201 1126 c-16 -19 -6 -36 20 -36 15 0 20 6 17 22 -4 27 -21 33 -37
14z"/>
<path d="M1127 1066 c-92 -33 -157 -104 -172 -188 -7 -35 -6 -38 17 -38 21 0
26 7 37 50 7 28 22 60 32 73 l20 22 -15 -31 c-9 -18 -18 -50 -22 -73 l-7 -41
238 0 238 0 -6 36 c-14 85 -94 168 -187 194 -49 14 -128 12 -173 -4z"/>
<path d="M910 988 c1 -27 29 -82 30 -57 0 31 -12 79 -21 79 -5 0 -9 -10 -9
-22z"/>
<path d="M895 819 c-4 -6 -3 -15 2 -20 5 -5 142 -8 329 -7 276 3 319 5 319 18
0 13 -44 15 -322 18 -226 1 -324 -1 -328 -9z"/>
<path d="M1155 770 c-4 -7 62 -10 189 -10 124 0 196 4 196 10 0 6 -70 10 -189
10 -116 0 -192 -4 -196 -10z"/>
<path d="M1115 634 c-30 -31 -15 -66 40 -95 27 -14 51 -32 53 -41 8 -41 -70
-49 -83 -8 -8 26 -25 26 -25 1 0 -31 28 -51 70 -51 31 0 43 5 56 25 26 40 12
69 -46 94 -34 15 -50 27 -50 40 0 34 61 39 74 6 3 -8 10 -15 16 -15 14 0 13
33 -2 48 -18 18 -84 15 -103 -4z"/>
<path d="M840 623 c0 -29 12 -63 21 -63 5 0 9 18 9 40 0 29 -4 40 -15 40 -8 0
-15 -8 -15 -17z"/>
<path d="M1696 573 c-4 -37 -9 -87 -13 -110 -4 -34 -2 -43 10 -43 10 0 16 15
19 54 5 60 21 88 45 79 12 -5 14 -18 8 -76 -6 -56 -5 -69 6 -65 10 3 15 27 17
78 3 80 -5 94 -46 85 -21 -5 -23 -3 -20 26 2 18 -2 34 -8 36 -8 2 -14 -20 -18
-64z"/>
<path d="M1645 600 c-3 -5 -17 -10 -31 -10 -45 0 -66 -18 -63 -53 2 -18 0 -37
-3 -42 -3 -6 -9 -31 -13 -57 -6 -40 -4 -48 13 -57 30 -16 87 -14 102 4 20 24
4 65 -24 65 -31 0 -56 10 -56 21 0 5 11 9 24 9 34 0 56 25 56 65 0 19 5 37 10
40 6 3 10 10 10 16 0 12 -17 12 -25 -1z m-20 -51 c5 -14 1 -27 -9 -37 -15 -15
-17 -15 -32 0 -20 20 -10 58 16 58 10 0 22 -10 25 -21z m3 -136 c-4 -20 -45
-28 -67 -14 -22 14 -3 31 35 31 28 0 35 -4 32 -17z"/>
<path d="M915 584 c-24 -25 -15 -57 22 -73 37 -16 47 -35 28 -51 -10 -8 -17
-7 -28 5 -17 17 -37 20 -37 6 0 -15 30 -41 46 -41 32 0 54 21 54 51 0 25 -6
33 -35 45 -35 14 -45 36 -23 50 6 4 16 0 23 -9 13 -18 35 -23 35 -9 0 14 -35
42 -53 42 -8 0 -23 -7 -32 -16z"/>
<path d="M1270 493 c0 -62 4 -103 10 -103 6 0 10 13 10 28 0 26 3 28 29 24 51
-7 79 67 49 133 -10 22 -17 25 -55 23 l-43 -1 0 -104z m75 27 c0 -48 -2 -55
-20 -55 -16 0 -21 8 -23 44 -4 54 3 73 25 69 15 -3 18 -14 18 -58z"/>
<path d="M1422 588 c-15 -15 -16 -38 -1 -38 7 0 17 7 24 17 14 19 35 9 35 -18
0 -13 -7 -19 -24 -19 -54 0 -78 -70 -31 -92 18 -8 28 -8 39 1 10 8 16 9 21 1
3 -5 12 -10 18 -10 15 0 10 138 -5 158 -13 15 -60 16 -76 0z m58 -98 c0 -20
-32 -44 -44 -33 -11 11 -7 41 7 46 25 11 37 6 37 -13z"/>
<path d="M404 503 l-7 -88 -35 78 c-25 56 -40 77 -53 77 -22 0 -24 -19 -9
-106 16 -93 20 -104 31 -104 8 0 9 14 5 43 -18 115 -18 115 19 39 21 -44 40
-72 48 -69 13 4 13 2 23 102 l7 70 13 -74 c14 -76 17 -85 31 -80 5 2 2 47 -7
99 -13 84 -18 95 -37 98 -20 3 -22 -2 -29 -85z"/>
<path d="M767 583 c-6 -6 -43 -10 -110 -13 -16 -1 -17 -8 -12 -48 12 -95 16
-112 27 -112 7 0 9 19 5 59 -5 41 -2 63 7 76 21 29 33 10 41 -60 9 -89 31 -89
27 0 -3 53 -1 66 13 71 22 9 24 5 31 -64 5 -45 11 -62 22 -62 11 0 13 7 8 31
-3 17 -6 46 -6 65 0 42 -33 78 -53 57z"/>
<path d="M1983 570 c-3 -11 -8 -20 -12 -20 -3 0 -7 -36 -8 -80 -2 -65 0 -82
12 -87 20 -7 32 4 18 18 -13 13 2 109 18 120 7 4 8 12 3 20 -5 8 -7 22 -6 32
4 24 -19 22 -25 -3z"/>
<path d="M2055 560 c-3 -11 -9 -20 -13 -20 -4 0 -8 -36 -9 -80 -2 -65 0 -82
12 -87 21 -7 30 3 17 19 -13 16 2 108 21 121 9 7 9 10 0 14 -8 3 -11 14 -7 29
7 29 -12 33 -21 4z"/>
<path d="M2130 565 c0 -8 4 -15 9 -15 5 0 11 7 15 15 3 9 0 15 -9 15 -8 0 -15
-7 -15 -15z"/>
<path d="M519 543 c-20 -23 -16 -99 6 -123 24 -27 71 -26 86 1 13 26 7 103
-11 124 -17 20 -64 19 -81 -2z m58 -15 c14 -18 24 -74 17 -93 -9 -21 -41 -19
-54 4 -11 22 -14 84 -3 94 10 11 30 8 40 -5z"/>
<path d="M1835 530 c-19 -38 -19 -94 1 -114 23 -23 71 -20 84 5 16 28 5 36
-20 14 -24 -22 -50 -13 -50 17 0 20 5 23 42 23 39 0 43 3 46 26 7 60 -75 83
-103 29z m73 -19 c3 -21 1 -23 -25 -16 -36 9 -38 11 -23 30 18 22 44 14 48
-14z"/>
<path d="M2116 497 c-13 -53 -18 -137 -8 -137 12 0 19 26 28 103 4 37 3 57 -4
57 -5 0 -12 -10 -16 -23z"/>
</g>
</svg>
